<svg width="49" height="27" viewBox="0 0 49 27" fill="none" xmlns="http://www.w3.org/2000/svg">
<path fill-rule="evenodd" clip-rule="evenodd" d="M25.4558 1.41433C26.2369 2.19538 26.2369 3.46171 25.4558 4.24276L4.24264 25.456C3.46159 26.237 2.19526 26.237 1.41421 25.456V25.456C0.633165 24.6749 0.633165 23.4086 1.41421 22.6275L22.6274 1.41433C23.4085 0.633282 24.6748 0.633282 25.4558 1.41433V1.41433Z" fill="#563D82"/>
<path fill-rule="evenodd" clip-rule="evenodd" d="M47.4558 25.4558C46.6747 26.2369 45.4084 26.2369 44.6274 25.4558L23.4142 4.24264C22.6331 3.46159 22.6331 2.19526 23.4142 1.41421V1.41421C24.1952 0.633165 25.4615 0.633165 26.2426 1.41421L47.4558 22.6274C48.2368 23.4085 48.2368 24.6748 47.4558 25.4558V25.4558Z" fill="#563D82"/>
</svg>
