<svg width="49" height="27" viewBox="0 0 49 27" fill="none" xmlns="http://www.w3.org/2000/svg">
<path fill-rule="evenodd" clip-rule="evenodd" d="M23.4142 25.4558C22.6331 24.6747 22.6331 23.4084 23.4142 22.6274L44.6274 1.41416C45.4084 0.633107 46.6747 0.633107 47.4558 1.41416V1.41416C48.2368 2.1952 48.2368 3.46153 47.4558 4.24258L26.2426 25.4558C25.4615 26.2368 24.1952 26.2368 23.4142 25.4558V25.4558Z" fill="#563D82"/>
<path fill-rule="evenodd" clip-rule="evenodd" d="M1.41421 1.41427C2.19526 0.633225 3.46159 0.633225 4.24264 1.41427L25.4558 22.6275C26.2369 23.4085 26.2369 24.6749 25.4558 25.4559V25.4559C24.6748 26.237 23.4085 26.237 22.6274 25.4559L1.41421 4.2427C0.633161 3.46165 0.633161 2.19532 1.41421 1.41427V1.41427Z" fill="#563D82"/>
</svg>
