<svg width="80" height="80" viewBox="0 0 80 80" fill="none" xmlns="http://www.w3.org/2000/svg">
<circle cx="40" cy="40" r="40" fill="#563D82"/>
<path fill-rule="evenodd" clip-rule="evenodd" d="M41.4558 23.4143C42.2369 24.1954 42.2369 25.4617 41.4558 26.2428L20.2426 47.456C19.4616 48.237 18.1953 48.237 17.4142 47.456V47.456C16.6332 46.6749 16.6332 45.4086 17.4142 44.6275L38.6274 23.4143C39.4085 22.6333 40.6748 22.6333 41.4558 23.4143V23.4143Z" fill="white"/>
<path fill-rule="evenodd" clip-rule="evenodd" d="M63.4558 47.4558C62.6747 48.2369 61.4084 48.2369 60.6274 47.4558L39.4142 26.2426C38.6331 25.4616 38.6331 24.1953 39.4142 23.4142V23.4142C40.1952 22.6332 41.4615 22.6332 42.2426 23.4142L63.4558 44.6274C64.2368 45.4085 64.2368 46.6748 63.4558 47.4558V47.4558Z" fill="white"/>
</svg>
