<svg width="80" height="80" viewBox="0 0 80 80" fill="none" xmlns="http://www.w3.org/2000/svg">
<circle cx="40" cy="40" r="40" fill="#563D82"/>
<path fill-rule="evenodd" clip-rule="evenodd" d="M42.0882 25.8749C43.1237 26.9105 43.1237 28.5894 42.0882 29.6249L24.625 47.0881C23.5895 48.1237 21.9105 48.1237 20.875 47.0881V47.0881C19.8395 46.0526 19.8395 44.3737 20.875 43.3381L38.3382 25.8749C39.3737 24.8394 41.0527 24.8394 42.0882 25.8749V25.8749Z" fill="white"/>
<path fill-rule="evenodd" clip-rule="evenodd" d="M60.0882 47.0882C59.0527 48.1237 57.3737 48.1237 56.3382 47.0882L38.875 29.625C37.8395 28.5895 37.8395 26.9105 38.875 25.875V25.875C39.9105 24.8395 41.5895 24.8395 42.625 25.875L60.0882 43.3382C61.1237 44.3737 61.1237 46.0527 60.0882 47.0882V47.0882Z" fill="white"/>
</svg>
